<svg width="74" height="36" viewBox="0 0 74 36" fill="none" xmlns="http://www.w3.org/2000/svg">
<path d="M0 18C0 8.05887 8.05888 0 18 0H56C65.9411 0 74 8.05887 74 18V18C74 27.9411 65.9411 36 56 36H18C8.05887 36 0 27.9411 0 18V18Z" fill="#F7F7F7"/>
<path d="M24.7995 11.8231L23.8382 13.4505C23.2467 13.2286 22.6551 13.0807 21.9896 13.0807C19.2536 13.0807 17.1092 15.1519 17.1092 17.815C17.1092 19.3685 17.8486 20.774 19.0318 21.5877L16 26.692H27.0179V24.1029H20.4367L21.398 22.4754C21.6199 22.4754 21.7678 22.4754 21.9896 22.4754C24.7256 22.4754 26.87 20.4041 26.87 17.7411C26.87 16.6314 26.5003 15.5958 25.8348 14.856L27.6834 11.7491H24.7995V11.8231ZM21.9896 19.9603C20.8065 19.9603 19.8452 18.9986 19.8452 17.815C19.8452 16.6314 20.8065 15.6698 21.9896 15.6698C23.1727 15.6698 24.134 16.6314 24.134 17.815C24.134 18.9986 23.2467 19.9603 21.9896 19.9603Z" fill="#020101"/>
<path d="M31.3818 9.30801H28.7197V22.9193H31.3818V9.30801Z" fill="#020101"/>
<path d="M55.412 13.3026L53.7112 17.3712L52.0105 13.3026H49.2745L47.5737 17.3712L45.873 13.3026H43.2109L47.3519 22.9193H47.7956L50.6055 16.1876L53.4894 22.9193H53.9331L58.0001 13.3026H55.412Z" fill="#020101"/>
<path d="M38.1096 13.0807C35.2996 13.0807 33.0073 15.2999 33.0073 18.111C33.0073 20.922 35.2996 23.1412 38.1096 23.1412C40.9195 23.1412 43.2118 20.922 43.2118 18.111C43.2858 15.2999 40.9934 13.0807 38.1096 13.0807ZM38.1096 20.4782C36.7785 20.4782 35.7433 19.4425 35.7433 18.111C35.7433 16.7794 36.7785 15.7438 38.1096 15.7438C39.4406 15.7438 40.4758 16.7794 40.4758 18.111C40.5498 19.4425 39.4406 20.4782 38.1096 20.4782Z" fill="#020101"/>
</svg>
